<?xml version="1.0" encoding="UTF-8"?>
<svg fill="none" version="1.1" viewBox="0.0 0.0 348.0 348.0" xmlns="http://www.w3.org/2000/svg" xmlns:cc="http://creativecommons.org/ns#" xmlns:dc="http://purl.org/dc/elements/1.1/" xmlns:rdf="http://www.w3.org/1999/02/22-rdf-syntax-ns#">
<metadata>
<rdf:RDF>
<cc:Work rdf:about="">
<dc:format>image/svg+xml</dc:format>
<dc:type rdf:resource="http://purl.org/dc/dcmitype/StillImage"/>
</cc:Work>
</rdf:RDF>
</metadata>
<path d="M5.079 5.776h336.913v337.67H5.08z" stroke="#000" stroke-width="2"/>
<path d="m282.73 40.554c0-8.376 6.966-15.165 15.56-15.165 4.126 0 8.084 1.597 11.001 4.441 2.918 2.844 4.558 6.702 4.558 10.724 0 8.376-6.966 15.165-15.56 15.165-8.593 0-15.559-6.79-15.559-15.165z" stroke="#000" stroke-width="2"/>
<rect x="8.3415" y="63.869" width="121.47" height="169.44" fill-opacity="0" stroke="#000"/>
<rect x="214.79" y="63.869" width="121.47" height="169.44" fill-opacity="0" stroke="#000"/>
<rect x="129.81" y="63.869" width="84.979" height="90.192" fill-opacity="0" stroke="#000"/>
<rect x="163.18" y="172.83" width="25.546" height="26.588" fill-opacity="0" stroke="#000"/>
<flowRoot transform="translate(2.1197 2.4883)" fill="#000000" font-family="sans-serif" font-size="13.333px" letter-spacing="0px" word-spacing="0px" style="line-height:1.25" xml:space="preserve"><flowRegion><rect x="165.43" y="175.66" width="20.644" height="21.474"/></flowRegion><flowPara>30</flowPara></flowRoot>
<rect x="53.177" y="168.66" width="23.46" height="23.982" fill-opacity="0" stroke="#000"/>
<rect x="272.14" y="173.87" width="22.418" height="25.024" fill-opacity="0" stroke="#000"/>
<rect x="60.447" y="73.225" width="7.877" height="95.984" fill-opacity="0" stroke="#000" stroke-width=".94303"/>
<rect x="68.363" y="73.263" width="90.374" height="11.131" fill-opacity="0" stroke="#000" stroke-width=".81764"/>
<rect x="278.92" y="73.253" width="7.8201" height="100.62" fill-opacity="0" stroke="#000"/>
<rect x="156.4" y="68.04" width="27.11" height="28.152" fill="#000" stroke="#000"/>
<rect x="181.43" y="73.253" width="97.491" height="11.47" fill-opacity="0" stroke="#000"/>
<rect x="14.076" y="233.3" width="110" height="30.238" fill-opacity="0" stroke="#000"/>
<rect x="14.076" y="263.54" width="32.845" height="33.366" fill-opacity="0" stroke="#000"/>
<rect x="19.29" y="234.87" width="22.939" height="23.982" fill="#000" stroke="#000"/>
<rect x="53.177" y="235.91" width="22.939" height="23.982" fill="#000" stroke="#000"/>
<rect x="91.756" y="236.43" width="22.939" height="23.982" fill="#000" stroke="#000"/>
<rect x="18.247" y="268.23" width="22.939" height="23.982" fill="#000" stroke="#000"/>
<rect x="225.22" y="238.52" width="22.939" height="23.982" fill="#000" stroke="#000"/>
<rect x="264.32" y="237.48" width="22.939" height="23.982" fill="#000" stroke="#000"/>
<rect x="305.51" y="238.52" width="22.939" height="23.982" fill="#000" stroke="#000"/>
<rect x="303.42" y="271.36" width="22.939" height="23.982" fill="#000" stroke="#000"/>
<rect x="220.63" y="233.29" width="109.92" height="33.389" fill-opacity="0" stroke="#000" stroke-width=".94954"/>
<rect x="296.64" y="267.71" width="34.93" height="32.845" fill-opacity="0" stroke="#000"/>
</svg>
